<svg xmlns="http://www.w3.org/2000/svg" viewBox="0 0 118.03 40.66"><defs><style>.cls-1{fill:#86c0aa;}.cls-2{fill:#1d1d1b;}.cls-3{fill:#242424;}</style></defs><title>Middel 4</title><g id="Laag_2" data-name="Laag 2"><g id="Laag_1-2" data-name="Laag 1"><path class="cls-1" d="M0,34.74,16.37,9.44l3.89-3.31L20,5.55l-4.8,1.16H1.25V3.06H24.48V4.69L7.2,31.38,3.84,34.21l.29.63,4.8-1.16h16v3.65H.62Z"/><path class="cls-1" d="M30.38,20.2c0-6.34,2.4-11.57,5-14.21l2.93-2.93H52.66L55.59,6c2.64,2.64,5,7.87,5,14.21,0,7-2.4,11.56-5,14.2l-2.93,2.93H38.35L35.42,34.4C32.78,31.76,30.38,27.16,30.38,20.2Zm7.73,14.06L41,33.68H50l2.93.58.53-.53-.29-2.45c1.73-3.26,3.07-5.66,3.07-11.08s-1.34-7.88-3.07-11.09l.29-2.45-.53-.53L50,6.71H41l-2.93-.58-.53.53.29,2.45c-1.72,3.21-3.07,5.61-3.07,11.09S36.15,28,37.87,31.28l-.29,2.45Z"/><path class="cls-1" d="M69.55,33.78V6.61l-1-3.55H89.23V6.71H76.7l-3.31-1-.53.52.92,3.36v5l-.63,3.08.53.53,3-.63H87.36V21.3H76.7l-3-.62-.53.52.63,3.08v6.48l-.92,3.36.53.52,3.31-1H89.91v3.65H68.59Z"/><path class="cls-1" d="M98.35,6.61l-1-3.55H118V6.71H105.5l-3.31-1-.53.52.92,3.36v5.53L102,18.23l.53.53,3-.63h9.94v3.65H105.5l-3-.62-.53.52.63,3.08V37.33H98.35Z"/><rect class="cls-2" x="39.62" y="34.94" width="11.49" height="5.72" rx="1.44"/><path class="cls-3" d="M48.77,36.46c.2.06.46.07.57.2a4.08,4.08,0,0,1,.4.81l-1,.64c.19.47.36.94.57,1.39.3.68.1,1-.58,1l-.92-2.3a1.24,1.24,0,0,1,.23-.17c.51-.22.85-.5.47-1.11-.06-.09,0-.28.06-.43Z"/><path class="cls-3" d="M45,36.41c.8-.11.58.69,1,1l-1,.61.2,1.16-.46.18-.86-1.06c.17-.16.23-.25.33-.29.52-.22.84-.5.48-1.11-.06-.1.08-.3.12-.45Z"/><path class="cls-3" d="M40.91,39.38l-.84-1.06A2.05,2.05,0,0,1,40.4,38c.54-.22.82-.52.46-1.12-.06-.09,0-.28,0-.42l.34-.11,1,1-1,.63.15,1.2Z"/><path class="cls-3" d="M49.9,39.37l-.93-1a2.2,2.2,0,0,1,.35-.31c.53-.21.83-.5.47-1.11-.06-.1.06-.3.1-.46l.17-.1c.79-.06.56.75,1,1l-1,.65.23,1.07Z"/><path class="cls-3" d="M43.56,39.35l-1-1,1-.67,0-1.17.21-.1c.78-.07.59.68,1,1.07-.67.35-1.38.66-.67,1.47l-.48.44Z"/><path class="cls-3" d="M47.84,39l-.78.38-.57-1.19.85-.51V36.49l.2-.1c.77,0,.57.71,1,1.07l-1,.62.34,1Z"/><path class="cls-3" d="M46,39.36l-.9-1.09,1-.61V36.5l.24-.13,1,1-1,.66.17,1.14Z"/><path class="cls-3" d="M42.2,39.26l-.93-1,.95-.58V36.39l.22.08c.18.05.42.05.51.17a4.8,4.8,0,0,1,.42.82l-.91.59c-.14.4.65,1-.2,1.22Z"/><path class="cls-3" d="M40,39.22c-.11-.14-.32-.28-.33-.43,0-.64,0-1.29,0-1.94a.61.61,0,0,1,.33-.42c.12,0,.35.11.45.24a4.63,4.63,0,0,1,.38.8L40,38v1.23Z"/><path class="cls-3" d="M46,39.36l.42-.17c.57.36.43.91.4,1.47H46Z"/><path class="cls-3" d="M47.54,36.39l-.2.1c-.78-.26-.46-.89-.55-1.55.35.09.84.13.85.23A6.41,6.41,0,0,1,47.54,36.39Z"/><path class="cls-3" d="M43.7,36.39l-.21.1c-.69-.27-.49-.84-.48-1.44l1,0Z"/><path class="cls-3" d="M44.75,39.39l.46-.18.58,1.45h-1Z"/><path class="cls-3" d="M46.34,36.37l-.24.13c-.54-.2-.6-.36-.53-1.46h.87Z"/><path class="cls-3" d="M42.2,39.26h.06c.75,0,.86.16.76,1.26C42.25,40.82,42,40.65,42.2,39.26Z"/><path class="cls-3" d="M45,36.41l-.15.07c-.84-.25-.46-.9-.54-1.46h.94Z"/><path class="cls-3" d="M42.44,36.47l-.22-.08c-.69-.17-.45-.71-.5-1.22l1-.07Z"/><path class="cls-3" d="M43.54,39.37l.63-.17.19,1.46h-.94c0-.46.09-.89.14-1.31Z"/><path class="cls-3" d="M48.77,36.46l-.19,0c-.71-.24-.4-.83-.53-1.38l1,.06Z"/><path class="cls-3" d="M47.83,39l.43,1.55-.92.07-.13-1.08.63-.55Z"/><path class="cls-3" d="M40.91,39.38l.44-.15c.58.26.37.77.47,1.28l-.91-.07Z"/><path class="cls-3" d="M41.25,36.38l-.34.11-.45-1,.88-.38Z"/><path class="cls-3" d="M50.06,36.36l-.17.1c-.72-.14-.43-.7-.51-1.2l.93,0Z"/><path class="cls-3" d="M49.9,39.37l.42-.24a4.12,4.12,0,0,1,.33,1c0,.08-.47.21-.89.39Z"/><path class="cls-3" d="M50.29,38.22l.7-.4v1.69Z"/><path class="cls-3" d="M40,39.24c.7.12.49.63.43,1.07C40.27,39.94,39,40,40,39.22Z"/><rect class="cls-2" x="39.62" width="11.49" height="5.72" rx="1.44"/><path class="cls-3" d="M48.77,1.52c.2.06.46.07.57.2a4.27,4.27,0,0,1,.4.8l-1,.65c.19.47.36.94.57,1.39.3.68.1,1-.58,1l-.92-2.3a.91.91,0,0,1,.23-.17c.51-.22.85-.5.47-1.11-.06-.1,0-.28.06-.43Z"/><path class="cls-3" d="M45,1.47c.8-.11.58.69,1,1l-1,.61.2,1.16-.46.18-.86-1.07c.17-.15.23-.24.33-.28.52-.22.84-.5.48-1.11-.06-.1.08-.3.12-.45Z"/><path class="cls-3" d="M40.91,4.44l-.84-1.06a2.05,2.05,0,0,1,.33-.29c.54-.22.82-.52.46-1.12-.06-.09,0-.28,0-.42l.34-.12,1,1-1,.64.15,1.2Z"/><path class="cls-3" d="M49.9,4.43,49,3.4c.19-.17.26-.28.35-.31.53-.22.83-.5.47-1.11-.06-.1.06-.3.1-.46l.17-.1c.79-.07.56.75,1,1.05l-1,.65.23,1.07Z"/><path class="cls-3" d="M43.56,4.41l-1-1,1-.67,0-1.17.21-.1c.78-.07.59.68,1,1.07C44,2.87,43.31,3.18,44,4l-.48.44Z"/><path class="cls-3" d="M47.84,4.08l-.78.38-.57-1.19.85-.52V1.55l.2-.1c.77-.05.57.7,1,1.07l-1,.62.34.95Z"/><path class="cls-3" d="M46,4.42l-.9-1.09,1-.61V1.55l.24-.12,1,1-1,.65.17,1.15Z"/><path class="cls-3" d="M42.2,4.32l-.93-1,.95-.59V1.45l.22.08c.18.05.42.05.51.17a4.8,4.8,0,0,1,.42.82l-.91.59c-.14.39.65.95-.2,1.22Z"/><path class="cls-3" d="M40,4.28c-.11-.14-.32-.28-.33-.43,0-.65,0-1.29,0-1.94A.59.59,0,0,1,40,1.49c.12,0,.35.11.45.23a5.47,5.47,0,0,1,.38.8L40,3.07V4.3Z"/><path class="cls-3" d="M46,4.42l.42-.17c.57.36.43.91.4,1.47H46Z"/><path class="cls-3" d="M47.54,1.45l-.2.1c-.78-.26-.46-.9-.55-1.55.35.09.84.13.85.22A6.45,6.45,0,0,1,47.54,1.45Z"/><path class="cls-3" d="M43.7,1.45l-.21.1C42.8,1.28,43,.71,43,.11l1,0Z"/><path class="cls-3" d="M44.75,4.45l.46-.18.58,1.45h-1Z"/><path class="cls-3" d="M46.34,1.43l-.24.12c-.54-.19-.6-.35-.53-1.45h.87Z"/><path class="cls-3" d="M42.2,4.32h.06c.75,0,.86.16.76,1.25C42.25,5.87,42,5.71,42.2,4.32Z"/><path class="cls-3" d="M45,1.47l-.15.07c-.84-.25-.46-.9-.54-1.46h.94Z"/><path class="cls-3" d="M42.44,1.53l-.22-.08c-.69-.17-.45-.71-.5-1.22l1-.07Z"/><path class="cls-3" d="M43.54,4.43l.63-.17.19,1.46h-.94c0-.47.09-.89.14-1.31Z"/><path class="cls-3" d="M48.77,1.52l-.19,0c-.71-.24-.4-.83-.53-1.38l1,0Z"/><path class="cls-3" d="M47.83,4.09l.43,1.55-.92.07-.13-1.08.63-.55Z"/><path class="cls-3" d="M40.91,4.44l.44-.15c.58.25.37.76.47,1.27l-.91-.06Z"/><path class="cls-3" d="M41.25,1.43l-.34.12-.45-1,.88-.37Z"/><path class="cls-3" d="M50.06,1.42l-.17.1c-.72-.14-.43-.7-.51-1.2l.93,0Z"/><path class="cls-3" d="M49.9,4.43l.42-.24a4.19,4.19,0,0,1,.33,1c0,.09-.47.22-.89.4Z"/><path class="cls-3" d="M50.29,3.28l.7-.4V4.57Z"/><path class="cls-3" d="M40,4.3c.7.12.49.63.43,1.07C40.27,5,39,5.09,40,4.28Z"/><ellipse class="cls-1" cx="50.38" cy="17.13" rx="1.05" ry="2.11"/><ellipse class="cls-1" cx="50.38" cy="24.66" rx="1.05" ry="2.11"/></g></g></svg>