<svg xmlns="http://www.w3.org/2000/svg" viewBox="0 0 131.52 52.13"><defs><style>.cls-1{font-size:48px;font-family:Brevier-Regular, Brevier;}.cls-1,.cls-6{fill:#86c0aa;}.cls-2{letter-spacing:-0.01em;}.cls-3{letter-spacing:-0.02em;}.cls-4{fill:#1d1d1b;}.cls-5{fill:#242424;}</style></defs><title>Middel 3</title><g id="Laag_2" data-name="Laag 2"><g id="Laag_1-2" data-name="Laag 1"><text class="cls-1" transform="translate(0 41.14)"><tspan class="cls-2">Z</tspan><tspan x="29.28" y="0">OE</tspan><tspan class="cls-3" x="95.28" y="0">F</tspan><tspan x="121.92" y="0"> </tspan></text><rect class="cls-4" x="42.15" y="38.74" width="11.49" height="5.72" rx="1.44"/><path class="cls-5" d="M51.3,40.26c.19.06.45.07.56.2a3.6,3.6,0,0,1,.4.81l-1,.64c.2.48.37.94.57,1.39.31.68.11,1-.58,1L50.35,42a1,1,0,0,1,.22-.16c.52-.23.85-.5.47-1.12,0-.09,0-.28.07-.42Z"/><path class="cls-5" d="M47.49,40.21c.8-.11.59.69,1,1l-1,.61.2,1.16-.46.18-.87-1.06a2.05,2.05,0,0,1,.33-.29c.53-.21.85-.49.48-1.11,0-.09.08-.3.13-.45Z"/><path class="cls-5" d="M43.44,43.19l-.84-1.06c.17-.16.24-.26.33-.29.54-.22.82-.52.46-1.12-.06-.1,0-.28,0-.43l.34-.11,1,1-1,.64L43.88,43Z"/><path class="cls-5" d="M52.43,43.17l-.93-1c.19-.18.25-.28.35-.32.53-.21.82-.5.47-1.1-.06-.1.06-.31.09-.47l.18-.09c.78-.07.56.75,1,1l-1,.65.24,1.07Z"/><path class="cls-5" d="M46.09,43.15l-1-1,1-.67,0-1.16.2-.11c.78-.07.6.69,1,1.08-.66.34-1.38.65-.67,1.47l-.47.43Z"/><path class="cls-5" d="M50.37,42.82l-.78.38L49,42l.86-.51V40.3l.2-.11c.76,0,.57.71,1,1.08l-1,.61.34.95Z"/><path class="cls-5" d="M48.55,43.16l-.89-1.09,1-.61V40.3l.25-.13,1,1-1,.66L49,43Z"/><path class="cls-5" d="M44.73,43.06l-.93-1,1-.59V40.2l.22.07c.17,0,.41,0,.51.17a5.32,5.32,0,0,1,.42.83l-.92.59c-.14.39.66.94-.19,1.22Z"/><path class="cls-5" d="M42.51,43c-.12-.14-.32-.28-.33-.43a15.54,15.54,0,0,1,0-1.93.4.4,0,0,1,.77-.19,5,5,0,0,1,.39.8l-.85.55V43Z"/><path class="cls-5" d="M48.55,43.16,49,43c.57.36.43.9.4,1.47h-.83Z"/><path class="cls-5" d="M50.07,40.19l-.2.11c-.78-.26-.46-.9-.55-1.56.35.09.83.13.84.23A5.62,5.62,0,0,1,50.07,40.19Z"/><path class="cls-5" d="M46.22,40.19l-.2.11c-.69-.28-.49-.85-.48-1.45l1-.05Z"/><path class="cls-5" d="M47.28,43.19l.46-.18.58,1.45h-1Z"/><path class="cls-5" d="M48.87,40.17l-.25.13c-.54-.2-.6-.36-.52-1.46H49Z"/><path class="cls-5" d="M44.73,43.06l.06,0c.75,0,.85.15.76,1.25C44.78,44.62,44.55,44.46,44.73,43.06Z"/><path class="cls-5" d="M47.49,40.21l-.14.07c-.84-.24-.46-.9-.54-1.45h.94Z"/><path class="cls-5" d="M45,40.27l-.22-.07c-.69-.17-.46-.72-.5-1.23l1-.07Z"/><path class="cls-5" d="M46.07,43.17l.62-.17.2,1.46H46c0-.46.09-.88.14-1.31Z"/><path class="cls-5" d="M51.3,40.26l-.19,0c-.71-.25-.41-.84-.54-1.39l1,.06Z"/><path class="cls-5" d="M50.36,42.83l.43,1.55-.92.07-.13-1.08.62-.54Z"/><path class="cls-5" d="M43.44,43.19l.44-.16c.58.26.37.77.47,1.28l-.91-.07Z"/><path class="cls-5" d="M43.78,40.18l-.34.11-.45-1,.88-.38Z"/><path class="cls-5" d="M52.59,40.17l-.18.09c-.72-.14-.42-.7-.5-1.19l.93,0Z"/><path class="cls-5" d="M52.43,43.17l.42-.24a4.12,4.12,0,0,1,.33,1c0,.08-.47.21-.89.39Z"/><path class="cls-5" d="M52.82,42l.69-.4v1.69Z"/><path class="cls-5" d="M42.49,43c.7.12.48.63.43,1.08-.12-.37-1.37-.29-.41-1.09Z"/><rect class="cls-4" x="41.8" y="3.8" width="11.49" height="5.72" rx="1.44"/><path class="cls-5" d="M51,5.32c.19.06.45.07.56.2a3.6,3.6,0,0,1,.4.81l-1,.64c.2.48.37.94.57,1.39.31.68.11,1-.58,1L50,7.06a1.54,1.54,0,0,1,.22-.17c.52-.22.85-.49.47-1.11,0-.09,0-.28.07-.43Z"/><path class="cls-5" d="M47.14,5.27c.8-.11.59.69,1,1l-1,.61.2,1.16-.46.18-.87-1.06a2.05,2.05,0,0,1,.33-.29c.53-.22.85-.49.48-1.11,0-.09.08-.3.13-.45Z"/><path class="cls-5" d="M43.09,8.24l-.84-1c.17-.16.24-.26.33-.3.54-.21.82-.52.46-1.11-.06-.1,0-.29.05-.43l.34-.11,1,1-1,.64.15,1.19Z"/><path class="cls-5" d="M52.08,8.23l-.93-1c.19-.17.25-.27.35-.31.53-.21.82-.5.47-1.11-.06-.1.06-.3.09-.46l.18-.09c.78-.07.56.74,1,1l-1,.65L52.5,8Z"/><path class="cls-5" d="M45.74,8.21l-1-1,1-.67,0-1.16.2-.11c.78-.07.6.69,1,1.08-.66.34-1.38.65-.67,1.46l-.47.44Z"/><path class="cls-5" d="M50,7.88l-.78.38-.58-1.19.86-.51V5.35l.2-.1c.76,0,.57.71,1,1.07l-1,.62.34.95Z"/><path class="cls-5" d="M48.2,8.22l-.89-1.09,1-.61V5.36l.25-.13,1,1-1,.66.17,1.14Z"/><path class="cls-5" d="M44.38,8.12l-.93-1,.95-.59V5.26l.22.07c.17,0,.41,0,.5.17a4.18,4.18,0,0,1,.42.82l-.91.6c-.14.39.66.94-.19,1.21Z"/><path class="cls-5" d="M42.16,8.08c-.12-.14-.32-.28-.33-.43a15.7,15.7,0,0,1,0-1.94.59.59,0,0,1,.33-.42c.11,0,.35.11.44.24a4.6,4.6,0,0,1,.39.8l-.85.55V8.1Z"/><path class="cls-5" d="M48.2,8.22l.43-.17c.57.36.43.91.4,1.48H48.2Z"/><path class="cls-5" d="M49.72,5.25l-.2.1c-.78-.26-.46-.89-.55-1.55.35.09.83.13.84.23A5.62,5.62,0,0,1,49.72,5.25Z"/><path class="cls-5" d="M45.87,5.25l-.2.11c-.69-.28-.49-.85-.49-1.45l1-.05Z"/><path class="cls-5" d="M46.93,8.25l.46-.18L48,9.52h-1Z"/><path class="cls-5" d="M48.52,5.23l-.25.13c-.54-.2-.6-.36-.52-1.46h.87Z"/><path class="cls-5" d="M44.38,8.12h.06c.75,0,.85.16.76,1.26C44.43,9.68,44.2,9.52,44.38,8.12Z"/><path class="cls-5" d="M47.14,5.27,47,5.34c-.84-.25-.46-.9-.54-1.46h.94Z"/><path class="cls-5" d="M44.62,5.33l-.22-.07c-.69-.18-.46-.72-.5-1.23l1-.07Z"/><path class="cls-5" d="M45.72,8.23l.62-.17.2,1.46H45.6c0-.46.09-.88.14-1.31Z"/><path class="cls-5" d="M51,5.32l-.19,0c-.71-.24-.41-.83-.54-1.38l1,.06Z"/><path class="cls-5" d="M50,7.89l.43,1.55-.92.07-.13-1.08L50,7.88Z"/><path class="cls-5" d="M43.09,8.24l.44-.15c.58.26.37.77.47,1.28l-.91-.07Z"/><path class="cls-5" d="M43.43,5.24l-.34.11-.45-1L43.52,4Z"/><path class="cls-5" d="M52.24,5.23l-.18.09c-.72-.14-.43-.7-.5-1.2l.93,0Z"/><path class="cls-5" d="M52.08,8.23,52.5,8a4.12,4.12,0,0,1,.33,1c0,.08-.47.21-.89.39Z"/><path class="cls-5" d="M52.47,7.08l.69-.4V8.37Z"/><path class="cls-5" d="M42.14,8.1c.7.12.48.63.43,1.07-.12-.37-1.37-.28-.41-1.09Z"/><ellipse class="cls-6" cx="55.54" cy="19.27" rx="1.05" ry="2.11"/><ellipse class="cls-6" cx="55.54" cy="26.81" rx="1.05" ry="2.11"/></g></g></svg>